<svg width="1200" height="880" viewBox="0 0 1200 880" fill="none" xmlns="http://www.w3.org/2000/svg">
  <rect width="1200" height="880" rx="40" fill="#F5F7F7"/>
  <rect x="24" y="24" width="1152" height="832" rx="28" fill="url(#bg)" stroke="#D8E0E1"/>
  <circle cx="918" cy="214" r="150" fill="#9DBB45" fill-opacity="0.14"/>
  <circle cx="245" cy="660" r="180" fill="#62A6AF" fill-opacity="0.11"/>
  <rect x="110" y="126" width="980" height="628" rx="36" fill="#FFFFFF" fill-opacity="0.8"/>
  <rect x="160" y="186" width="264" height="28" rx="14" fill="#24383B"/>
  <rect x="160" y="242" width="394" height="16" rx="8" fill="#5C6668" fill-opacity="0.38"/>
  <rect x="160" y="330" width="424" height="188" rx="28" fill="#24383B"/>
  <path d="M214 411H526" stroke="#9DBB45" stroke-width="10" stroke-linecap="round"/>
  <path d="M214 454H478" stroke="#DDE7E7" stroke-width="10" stroke-linecap="round"/>
  <path d="M214 497H448" stroke="#DDE7E7" stroke-width="10" stroke-linecap="round"/>
  <rect x="640" y="330" width="314" height="244" rx="32" fill="#F5F7F7" stroke="#D8E0E1"/>
  <circle cx="797" cy="408" r="58" fill="#9DBB45" fill-opacity="0.16"/>
  <path d="M773 398L794 418L826 384" stroke="#24383B" stroke-width="12" stroke-linecap="round" stroke-linejoin="round"/>
  <text x="160" y="624" fill="#24383B" font-size="38" font-family="Manrope, Arial, sans-serif" font-weight="700">Placeholder de contacto / clínica</text>
  <text x="160" y="678" fill="#5C6668" font-size="24" font-family="Manrope, Arial, sans-serif">Reemplazar por dentatus-contact.jpg o fotografía del local.</text>
  <defs>
    <linearGradient id="bg" x1="24" y1="24" x2="1119" y2="856" gradientUnits="userSpaceOnUse">
      <stop stop-color="#FFFFFF"/>
      <stop offset="1" stop-color="#EEF2F2"/>
    </linearGradient>
  </defs>
</svg>
