<svg width="128" height="128" viewBox="0 0 128 128" fill="none" xmlns="http://www.w3.org/2000/svg">
  <rect width="128" height="128" rx="32" fill="#24383B"/>
  <circle cx="64" cy="64" r="42" fill="#F5F7F7"/>
  <path d="M52 30C41 40 41 56 48 66C50 70 52 75 52 81C52 94 60 104 72 104C84 104 92 94 92 82C92 74 95 69 99 64C107 52 105 38 95 29" stroke="#9DBB45" stroke-width="7" stroke-linecap="round"/>
  <path d="M58 46C65 40 76 40 83 46" stroke="#24383B" stroke-width="5" stroke-linecap="round"/>
  <circle cx="92" cy="35" r="4" fill="#62A6AF"/>
  <circle cx="102" cy="52" r="4" fill="#62A6AF"/>
  <circle cx="103" cy="72" r="4" fill="#62A6AF"/>
</svg>
